<svg xmlns="http://www.w3.org/2000/svg" viewBox="0 0 1440 320"><path fill="#F9DE4E" fill-opacity="1" d="M0,0L20,48C40,96,80,192,120,202.7C160,213,200,139,240,106.7C280,75,320,85,360,117.3C400,149,440,203,480,224C520,245,560,235,600,218.7C640,203,680,181,720,160C760,139,800,117,840,133.3C880,149,920,203,960,218.7C1000,235,1040,213,1080,213.3C1120,213,1160,235,1200,213.3C1240,192,1280,128,1320,90.7C1360,53,1400,43,1420,37.3L1440,32L1440,0L1420,0C1400,0,1360,0,1320,0C1280,0,1240,0,1200,0C1160,0,1120,0,1080,0C1040,0,1000,0,960,0C920,0,880,0,840,0C800,0,760,0,720,0C680,0,640,0,600,0C560,0,520,0,480,0C440,0,400,0,360,0C320,0,280,0,240,0C200,0,160,0,120,0C80,0,40,0,20,0L0,0Z"></path></svg>